<svg xmlns="http://www.w3.org/2000/svg" width="128" height="128" viewBox="0 0 128 128">
  <defs>
    <linearGradient id="shieldFill" x1="0" y1="0" x2="0" y2="1">
      <stop offset="0%" stop-color="#ff6a6a" stop-opacity="0.92"/>
      <stop offset="100%" stop-color="#b51212" stop-opacity="0.92"/>
    </linearGradient>
    <filter id="softGlow" x="-20%" y="-20%" width="140%" height="140%">
      <feGaussianBlur stdDeviation="1.2" result="blur"/>
      <feMerge>
        <feMergeNode in="blur"/>
        <feMergeNode in="SourceGraphic"/>
      </feMerge>
    </filter>
  </defs>

  <g filter="url(#softGlow)">
    <path
      d="M64 8
         C81 8 97 12 111 18
         V54
         C111 79 93 103 64 120
         C35 103 17 79 17 54
         V18
         C31 12 47 8 64 8 Z"
      fill="url(#shieldFill)"
      fill-opacity="0.82"
      stroke="#fff4f4"
      stroke-width="5"
      stroke-linejoin="round"/>

    <path
      d="M64 20
         C77 20 89 23 99 27
         V52
         C99 72 85 90 64 103
         C43 90 29 72 29 52
         V27
         C39 23 51 20 64 20 Z"
      fill="none"
      stroke="#ffd7d7"
      stroke-width="2"
      stroke-opacity="0.9"/>

    <path d="M64 22 V100" stroke="#fff6f6" stroke-width="8" stroke-linecap="round"/>
    <path d="M34 49 H94" stroke="#fff6f6" stroke-width="8" stroke-linecap="round"/>

    <path d="M64 28 V95" stroke="#b90d0d" stroke-width="3" stroke-linecap="round" opacity="0.65"/>
    <path d="M38 49 H90" stroke="#b90d0d" stroke-width="3" stroke-linecap="round" opacity="0.65"/>

    <path d="M64 11 L64 118" stroke="#ffffff" stroke-width="1.5" opacity="0.18"/>
  </g>
</svg>
